<svg width="256" height="256" viewBox="0 0 256 256" fill="none" xmlns="http://www.w3.org/2000/svg">
<path d="M177.263 24C177.263 19.5817 173.681 16 169.263 16H45.8947C33.8526 16 24 25.1636 24 36.3636V170.909C24 175.327 27.5817 178.909 32 178.909H37.8947C42.313 178.909 45.8947 175.327 45.8947 170.909V44.3636C45.8947 39.9454 49.4765 36.3636 53.8947 36.3636H169.263C173.681 36.3636 177.263 32.7819 177.263 28.3636V24ZM210.105 56.7273H89.6842C77.6421 56.7273 67.7895 65.8909 67.7895 77.0909V219.636C67.7895 230.836 77.6421 240 89.6842 240H210.105C222.147 240 232 230.836 232 219.636V77.0909C232 65.8909 222.147 56.7273 210.105 56.7273ZM210.105 211.636C210.105 216.055 206.524 219.636 202.105 219.636H97.6842C93.2659 219.636 89.6842 216.055 89.6842 211.636V85.0909C89.6842 80.6726 93.2659 77.0909 97.6842 77.0909H202.105C206.524 77.0909 210.105 80.6726 210.105 85.0909V211.636Z" fill="#963C5E"/>
</svg>
