<svg width="256" height="256" viewBox="0 0 256 256" fill="none" xmlns="http://www.w3.org/2000/svg">
<path fill-rule="evenodd" clip-rule="evenodd" d="M0 38.4C0 26.0288 9.55126 16 21.3333 16H91.2905C100.473 16 108.625 22.1696 111.529 31.3165L112.471 34.2835C115.375 43.4304 123.527 49.6 132.71 49.6H234.667C246.449 49.6 256 59.6288 256 72V73.7368V217.263V217.6C256 229.971 246.449 240 234.667 240H21.3333C9.55125 240 0 229.971 0 217.6V217.263V83.2V38.4ZM21.3335 64.16C21.3335 54.5723 29.2929 46.8 39.1113 46.8H85.3335C92.4071 46.8 100.286 55.5769 103.349 62.5036L103.408 62.6378L103.46 62.7561C103.901 63.7581 104.344 64.7657 105.022 65.6235C110.908 73.0707 122.344 72.9411 129.817 72.8564C130.562 72.848 131.268 72.84 131.925 72.84H216.889C226.707 72.84 234.667 80.6123 234.667 90.2V91.5461V202.779V203.04C234.667 212.628 226.707 220.4 216.889 220.4H39.1113C29.2929 220.4 21.3335 212.628 21.3335 203.04V202.779V98.88V64.16ZM122.667 94.4C119.721 94.4 117.333 96.9072 117.333 100V133.6H85.3333C82.3878 133.6 80 136.107 80 139.2V150.4C80 153.493 82.3878 156 85.3333 156H117.333V189.6C117.333 192.693 119.721 195.2 122.667 195.2H133.333C136.279 195.2 138.667 192.693 138.667 189.6V156H170.667C173.612 156 176 153.493 176 150.4V139.2C176 136.107 173.612 133.6 170.667 133.6H138.667V100C138.667 96.9072 136.279 94.4 133.333 94.4H122.667Z" fill="#AB456C"/>
</svg>
