<svg width="256" height="256" viewBox="0 0 256 256" fill="none" xmlns="http://www.w3.org/2000/svg">
<path fill-rule="evenodd" clip-rule="evenodd" d="M32 36C32 24.9543 40.9543 16 52 16H151.987C157.13 16 162.076 17.9815 165.796 21.5329L192 46.5455L217.81 71.1818C221.763 74.9557 224 80.1833 224 85.6489V220C224 231.046 215.046 240 204 240H52C40.9543 240 32 231.046 32 220V36ZM54.5881 48.4C54.5881 42.8771 59.0653 38.4 64.5881 38.4H145.566C147.994 38.4 150.339 39.2837 152.164 40.8861L176 61.8182L198.489 84.3448C200.36 86.2197 201.412 88.7607 201.412 91.4099V207.6C201.412 213.123 196.934 217.6 191.412 217.6H64.5881C59.0652 217.6 54.5881 213.123 54.5881 207.6V48.4ZM122.667 87.2727C119.721 87.2727 117.333 89.552 117.333 92.3636V122.909H85.3333C82.3878 122.909 80 125.188 80 128V138.182C80 140.993 82.3878 143.273 85.3333 143.273H117.333V173.818C117.333 176.63 119.721 178.909 122.667 178.909H133.333C136.279 178.909 138.667 176.63 138.667 173.818V143.273H170.667C173.612 143.273 176 140.993 176 138.182V128C176 125.188 173.612 122.909 170.667 122.909H138.667V92.3636C138.667 89.552 136.279 87.2727 133.333 87.2727H122.667Z" fill="#AB456C"/>
</svg>
