<svg width="256" height="256" viewBox="0 0 256 256" fill="none" xmlns="http://www.w3.org/2000/svg">
<path d="M82.656 154.432C77.456 151.856 71.736 150.4 65.6 150.4C42.616 150.4 24 170.448 24 195.2C24 219.952 42.616 240 65.6 240C88.584 240 107.2 219.952 107.2 195.2C107.2 188.592 105.848 182.432 103.456 176.832L128 150.4L152.544 176.832C150.152 182.432 148.8 188.592 148.8 195.2C148.8 219.952 167.416 240 190.4 240C213.384 240 232 219.952 232 195.2C232 170.448 213.384 150.4 190.4 150.4C184.264 150.4 178.544 151.856 173.344 154.432L148.8 128L221.6 49.6V16H211.2L82.656 154.432ZM86.4 195.2C86.4 207.52 77.144 217.6 65.6 217.6C54.056 217.6 44.8 207.52 44.8 195.2C44.8 182.88 54.056 172.8 65.6 172.8C77.144 172.8 86.4 182.88 86.4 195.2ZM211.2 195.2C211.2 207.52 201.944 217.6 190.4 217.6C178.856 217.6 169.6 207.52 169.6 195.2C169.6 182.88 178.856 172.8 190.4 172.8C201.944 172.8 211.2 182.88 211.2 195.2ZM133.2 128C133.2 131.136 130.912 133.6 128 133.6C125.088 133.6 122.8 131.136 122.8 128C122.8 124.864 125.088 122.4 128 122.4C130.912 122.4 133.2 124.864 133.2 128ZM34.4 49.6L96.8 116.8L117.6 94.4L44.8 16H34.4V49.6Z" fill="#963C5E"/>
</svg>
