<svg width="256" height="256" viewBox="0 0 256 256" fill="none" xmlns="http://www.w3.org/2000/svg">
<path d="M45.7143 215.111C45.7143 228.8 58.0571 240 73.1429 240H182.857C197.943 240 210.286 228.8 210.286 215.111V73.7778C210.286 69.3595 206.704 65.7778 202.286 65.7778H53.7143C49.296 65.7778 45.7143 69.3595 45.7143 73.7778V215.111ZM86.0097 132.43C82.498 129.258 82.4915 123.748 85.9958 120.568L93.4253 113.827C96.4697 111.064 101.112 111.059 104.163 113.814L122.625 130.488C125.676 133.244 130.319 133.238 133.363 130.476L151.698 113.838C154.748 111.071 159.4 111.071 162.45 113.838L169.882 120.582C173.381 123.757 173.381 129.256 169.882 132.431L153.866 146.964C150.367 150.139 150.367 155.639 153.866 158.813L169.882 173.347C173.381 176.521 173.381 182.021 169.882 185.196L162.45 191.94C159.4 194.707 154.748 194.707 151.698 191.94L133.376 175.314C130.326 172.546 125.674 172.546 122.624 175.314L104.302 191.94C101.252 194.707 96.5995 194.707 93.5498 191.94L86.1176 185.196C82.6188 182.021 82.6188 176.521 86.1176 173.347L102.118 158.827C105.623 155.647 105.616 150.137 102.105 146.966L86.0097 132.43ZM179.089 28.4444C177.101 28.4444 175.185 27.7046 173.713 26.3689L164.573 18.0755C163.101 16.7399 161.185 16 159.197 16H96.8029C94.8153 16 92.8989 16.7399 91.427 18.0755L82.2873 26.3689C80.8154 27.7046 78.899 28.4444 76.9114 28.4444H40C35.5817 28.4444 32 32.0262 32 36.4444V45.3333C32 49.7516 35.5817 53.3333 40 53.3333H216C220.418 53.3333 224 49.7516 224 45.3333V36.4444C224 32.0262 220.418 28.4444 216 28.4444H179.089Z" fill="#963C5E"/>
</svg>
