<svg width="256" height="256" viewBox="0 0 256 256" fill="none" xmlns="http://www.w3.org/2000/svg">
<rect x="56" y="48" width="144" height="160" rx="16" fill="url(#paint0_linear_8_41)"/>
<circle cx="76" cy="68" r="6" fill="#F2F2F2"/>
<circle cx="180" cy="68" r="6" fill="#F2F2F2"/>
<circle cx="76" cy="188" r="6" fill="#F2F2F2"/>
<circle cx="128" cy="116" r="52" fill="#C6C6C6"/>
<path d="M160 168L200 128V192C200 200.837 192.837 208 184 208H120L160 168Z" fill="#A8A6A6"/>
<circle cx="180" cy="188" r="6" fill="#F2F2F2"/>
<circle cx="128" cy="116" r="12" fill="#817E7E"/>
<path d="M178.238 149.193C180.236 151.188 181.903 153.475 183.145 155.923C184.386 158.37 185.178 160.931 185.475 163.459C185.772 165.987 185.568 168.432 184.875 170.654C184.181 172.877 183.013 174.834 181.435 176.414C179.857 177.993 177.902 179.164 175.68 179.86C173.458 180.556 171.013 180.763 168.485 180.469C165.957 180.175 163.395 179.386 160.946 178.147C158.497 176.908 156.208 175.244 154.211 173.248L166.224 161.221L178.238 149.193Z" fill="#817E7E"/>
<path d="M181.232 161.548C182.756 167.916 178.846 174.31 172.498 175.829C166.15 177.348 159.768 173.418 158.244 167.049C156.72 160.681 160.63 154.287 166.978 152.768C173.326 151.249 179.708 155.179 181.232 161.548Z" fill="white"/>
<path d="M107.86 142.808C105.362 141.528 106.626 137.727 109.388 138.213L109.869 138.298L172.222 152.651C174.43 153.159 175.76 155.423 175.132 157.604L170.755 172.8C170.051 175.247 167.253 176.392 165.038 175.14L107.86 142.808Z" fill="white"/>
<circle cx="170" cy="164" r="8" fill="#817E7E"/>
<defs>
<linearGradient id="paint0_linear_8_41" x1="63" y1="53.5" x2="182" y2="203" gradientUnits="userSpaceOnUse">
<stop stop-color="#B8B8B8"/>
<stop offset="1" stop-color="#666565"/>
</linearGradient>
</defs>
</svg>
