<svg width="256" height="256" viewBox="0 0 256 256" fill="none" xmlns="http://www.w3.org/2000/svg">
<path d="M32 64C32 55.1634 39.1634 48 48 48H100.468C107.355 48 113.469 52.4069 115.647 58.9404L116.353 61.0596C118.531 67.5931 124.645 72 131.532 72H208C216.837 72 224 79.1634 224 88V192C224 200.837 216.837 208 208 208H48C39.1634 208 32 200.837 32 192V64Z" fill="#82284A"/>
<path d="M32 96H100.625C107.435 96 113.5 91.6888 115.737 85.2563L116.263 83.7437C118.5 77.3112 124.565 73 131.375 73H208C216.837 73 224 80.2712 224 89.2406V191.759C224 200.729 216.837 208 208 208H48C39.1634 208 32 200.729 32 191.759V96Z" fill="#963C5E"/>
</svg>
