<svg width="256" height="256" viewBox="0 0 256 256" fill="none" xmlns="http://www.w3.org/2000/svg">
<rect x="16" y="216" width="224" height="24" rx="8" fill="#963C5E"/>
<path fill-rule="evenodd" clip-rule="evenodd" d="M36 16C24.9543 16 16 24.9543 16 36V172C16 183.046 24.9543 192 36 192H220C231.046 192 240 183.046 240 172V36C240 24.9543 231.046 16 220 16H36ZM50 40C44.4772 40 40 44.4772 40 50V158C40 163.523 44.4772 168 50 168H206C211.523 168 216 163.523 216 158V50C216 44.4772 211.523 40 206 40H50Z" fill="#963C5E"/>
</svg>
