<svg width="256" height="256" viewBox="0 0 256 256" fill="none" xmlns="http://www.w3.org/2000/svg">
<rect x="16" y="208" width="224" height="32" rx="10" fill="#963C5E"/>
<path fill-rule="evenodd" clip-rule="evenodd" d="M36 16C24.9543 16 16 24.9543 16 36V172C16 183.046 24.9543 192 36 192H220C231.046 192 240 183.046 240 172V36C240 24.9543 231.046 16 220 16H36ZM62 51C56.4772 51 52 55.4771 52 61V147C52 152.523 56.4771 157 62 157H194C199.523 157 204 152.523 204 147V61C204 55.4772 199.523 51 194 51H62Z" fill="#963C5E"/>
</svg>
