<svg width="256" height="256" viewBox="0 0 256 256" fill="none" xmlns="http://www.w3.org/2000/svg">
<circle cx="128" cy="128" r="96" fill="url(#paint0_linear_8_17)"/>
<path d="M141.07 159.933C141.07 173.225 129.861 184 116.035 184C102.208 184 91 173.225 91 159.933C91 146.641 102.208 135.865 116.035 135.865C129.861 135.865 141.07 146.641 141.07 159.933Z" fill="#F2F2F2"/>
<path d="M124.38 79.7079H141.07V159.933H124.38V79.7079Z" fill="#F2F2F2"/>
<path d="M127.151 74.3497C130.41 71.2168 135.694 71.2168 138.953 74.3497L162.556 97.0407C165.815 100.174 165.815 105.253 162.556 108.386C159.297 111.519 154.013 111.519 150.754 108.386L127.151 85.6952C123.892 82.5622 123.892 77.4827 127.151 74.3497Z" fill="#F2F2F2"/>
<defs>
<linearGradient id="paint0_linear_8_17" x1="68" y1="48" x2="184" y2="194" gradientUnits="userSpaceOnUse">
<stop stop-color="#EA3D5C"/>
<stop offset="1" stop-color="#E46C15"/>
</linearGradient>
</defs>
</svg>
