<svg width="256" height="256" viewBox="0 0 256 256" fill="none" xmlns="http://www.w3.org/2000/svg">
<path d="M215.111 205.111C215.111 210.634 210.634 215.111 205.111 215.111H50.8889C45.366 215.111 40.8889 210.634 40.8889 205.111V50.8889C40.8889 45.366 45.366 40.8889 50.8889 40.8889H118C123.523 40.8889 128 36.4117 128 30.8889V26C128 20.4771 123.523 16 118 16H40.8889C34.2879 16 27.9574 18.6222 23.2898 23.2898C18.6222 27.9574 16 34.2879 16 40.8889V215.111C16 221.712 18.6222 228.043 23.2898 232.71C27.9574 237.378 34.2879 240 40.8889 240H215.111C228.8 240 240 228.8 240 215.111V138C240 132.477 235.523 128 230 128H225.111C219.588 128 215.111 132.477 215.111 138V205.111ZM162.889 16C157.366 16 152.889 20.4772 152.889 26V30.8889C152.889 36.4117 157.366 40.8889 162.889 40.8889H173.422C182.331 40.8889 186.793 51.6603 180.493 57.96L82.3066 156.147C78.4014 160.052 78.4014 166.384 82.3066 170.289L85.7112 173.693C89.6164 177.599 95.9481 177.599 99.8533 173.693L198.04 75.5066C204.34 69.207 215.111 73.6686 215.111 82.5777V93.1111C215.111 98.634 219.588 103.111 225.111 103.111H230C235.523 103.111 240 98.634 240 93.1111V26C240 20.4772 235.523 16 230 16H162.889Z" fill="#963C5E"/>
<path d="M145.657 29.6569C140.617 24.6171 144.186 16 151.314 16H232C236.418 16 240 19.5817 240 24V104.686C240 111.814 231.383 115.383 226.343 110.343L186 70L145.657 29.6569Z" fill="#963C5E"/>
</svg>
