<svg width="256" height="256" viewBox="0 0 256 256" fill="none" xmlns="http://www.w3.org/2000/svg">
<path d="M202.667 36.1818H158.08C153.6 24.4764 141.867 16 128 16C114.133 16 102.4 24.4764 97.92 36.1818H53.3333C41.6 36.1818 32 45.2636 32 56.3636V217.818C32 228.918 41.6 238 53.3333 238H202.667C214.4 238 224 228.918 224 217.818V56.3636C224 45.2636 214.4 36.1818 202.667 36.1818ZM128 36.1818C133.867 36.1818 138.667 40.7227 138.667 46.2727C138.667 51.8227 133.867 56.3636 128 56.3636C122.133 56.3636 117.333 51.8227 117.333 46.2727C117.333 40.7227 122.133 36.1818 128 36.1818ZM192 217.818H64C58.1333 217.818 53.3333 213.277 53.3333 207.727V66.4545C53.3333 60.9045 58.1333 56.3636 64 56.3636H74.6667V66.4545C74.6667 77.5545 84.2667 86.6364 96 86.6364H160C171.733 86.6364 181.333 77.5545 181.333 66.4545V56.3636H192C197.867 56.3636 202.667 60.9045 202.667 66.4545V207.727C202.667 213.277 197.867 217.818 192 217.818Z" fill="#963C5E"/>
</svg>
