<svg width="256" height="256" viewBox="0 0 256 256" fill="none" xmlns="http://www.w3.org/2000/svg">
<path fill-rule="evenodd" clip-rule="evenodd" d="M240 76C240 109.137 213.137 136 180 136C174.611 136 169.387 135.289 164.418 133.957L64.5687 233.806C56.7582 241.617 44.0949 241.617 36.2844 233.806L22.1423 219.664C14.3318 211.854 14.3318 199.19 22.1423 191.38L122.021 91.5006C120.703 86.556 120 81.3601 120 76C120 42.8629 146.863 16 180 16C185.537 16 190.898 16.7499 195.988 18.1537C198.773 18.9216 199.509 22.3747 197.463 24.4145L169.923 51.882C162.102 59.6821 162.102 72.3287 169.923 80.1288L174.029 84.2235C181.85 92.0237 194.53 92.0237 202.35 84.2235L230.775 55.8738C232.763 53.8908 236.115 54.528 236.994 57.1948C238.945 63.1098 240 69.4316 240 76ZM173.116 28.2857C174.898 28.0393 175.869 30.1259 174.627 31.4268L159.773 46.9836C148.331 58.9668 149.03 77.6753 161.335 88.7703L166.864 93.7555C179.17 104.851 198.421 104.13 209.863 92.1473L227.752 73.4122C228.27 72.8688 229.179 73.1962 229.207 73.947C230.197 100.427 208.97 122.718 181.793 123.734C174.451 124.009 167.426 122.703 161.063 120.128L59.5271 221.664C55.6219 225.569 49.2902 225.569 45.385 221.664L34.0713 210.35C30.166 206.445 30.166 200.113 34.0713 196.208L134.968 95.3112C132.499 89.8884 131.029 83.9231 130.793 77.6278C129.866 52.8256 148.429 31.699 173.116 28.2857Z" fill="#AB456C"/>
</svg>
