<svg width="256" height="256" viewBox="0 0 256 256" fill="none" xmlns="http://www.w3.org/2000/svg">
<path d="M125.38 88.1421C133.19 80.3316 145.854 80.3316 153.664 88.1421L167.806 102.284C175.617 110.095 175.617 122.758 167.806 130.569L64.5687 233.806C56.7582 241.617 44.0949 241.617 36.2844 233.806L22.1423 219.664C14.3318 211.854 14.3318 199.19 22.1423 191.38L125.38 88.1421Z" fill="#AB456C"/>
<path fill-rule="evenodd" clip-rule="evenodd" d="M180 136C213.137 136 240 109.137 240 76C240 69.4316 238.945 63.1098 236.994 57.1948C236.115 54.528 232.763 53.8908 230.775 55.8738L202.35 84.2235C194.53 92.0237 181.85 92.0237 174.029 84.2235L169.923 80.1288C162.102 72.3287 162.102 59.6821 169.923 51.882L197.463 24.4145C199.509 22.3747 198.773 18.9216 195.988 18.1537C190.898 16.7499 185.537 16 180 16C146.863 16 120 42.8629 120 76C120 109.137 146.863 136 180 136Z" fill="#AB456C"/>
</svg>
