<svg width="256" height="256" viewBox="0 0 256 256" fill="none" xmlns="http://www.w3.org/2000/svg">
<path fill-rule="evenodd" clip-rule="evenodd" d="M20 48C8.95431 48 0 56.9543 0 68V188C0 199.046 8.95431 208 20 208H236C247.046 208 256 199.046 256 188V68C256 56.9543 247.046 48 236 48H20ZM34 70.8571C28.4772 70.8571 24 75.3343 24 80.8571V175.143C24 180.666 28.4772 185.143 34 185.143H222C227.523 185.143 232 180.666 232 175.143V80.8571C232 75.3343 227.523 70.8571 222 70.8571H34Z" fill="#963C5E"/>
<rect x="168" y="16" width="24" height="224" fill="#963C5E"/>
<rect x="152" y="224" width="56" height="16" rx="4" fill="#963C5E"/>
<rect x="152" y="16" width="56" height="16" rx="4" fill="#963C5E"/>
</svg>
