<svg width="256" height="256" viewBox="0 0 256 256" fill="none" xmlns="http://www.w3.org/2000/svg">
<path fill-rule="evenodd" clip-rule="evenodd" d="M36 16C24.9543 16 16 24.9543 16 36V97.8182C16 108.864 24.9543 117.818 36 117.818H97.8182C108.864 117.818 117.818 108.864 117.818 97.8182V36C117.818 24.9543 108.864 16 97.8183 16H36ZM46.3636 36.3636C40.8407 36.3636 36.3636 40.8408 36.3636 46.3636V87.4545C36.3636 92.9774 40.8407 97.4545 46.3636 97.4545H87.4545C92.9774 97.4545 97.4545 92.9774 97.4545 87.4545V46.3636C97.4545 40.8408 92.9774 36.3636 87.4545 36.3636H46.3636Z" fill="#963C5E"/>
<path fill-rule="evenodd" clip-rule="evenodd" d="M158.182 16C147.136 16 138.182 24.9543 138.182 36V97.8182C138.182 108.864 147.136 117.818 158.182 117.818H220C231.046 117.818 240 108.864 240 97.8182V36C240 24.9543 231.046 16 220 16H158.182ZM168.546 36.3636C163.023 36.3636 158.546 40.8408 158.546 46.3636V87.4545C158.546 92.9774 163.023 97.4545 168.546 97.4545H209.637C215.16 97.4545 219.637 92.9774 219.637 87.4545V46.3636C219.637 40.8408 215.16 36.3636 209.637 36.3636H168.546Z" fill="#963C5E"/>
<path fill-rule="evenodd" clip-rule="evenodd" d="M36 138.182C24.9543 138.182 16 147.136 16 158.182V220C16 231.046 24.9543 240 36 240H97.8182C108.864 240 117.818 231.046 117.818 220V158.182C117.818 147.136 108.864 138.182 97.8183 138.182H36ZM46.3636 158.545C40.8407 158.545 36.3636 163.023 36.3636 168.545V209.636C36.3636 215.159 40.8407 219.636 46.3636 219.636H87.4545C92.9774 219.636 97.4545 215.159 97.4545 209.636V168.545C97.4545 163.023 92.9774 158.545 87.4545 158.545H46.3636Z" fill="#963C5E"/>
<path fill-rule="evenodd" clip-rule="evenodd" d="M158.182 138.182C147.136 138.182 138.182 147.136 138.182 158.182V220C138.182 231.046 147.136 240 158.182 240H220C231.046 240 240 231.046 240 220V158.182C240 147.136 231.046 138.182 220 138.182H158.182ZM168.546 158.545C163.023 158.545 158.546 163.023 158.546 168.545V209.636C158.546 215.159 163.023 219.636 168.546 219.636H209.637C215.16 219.636 219.637 215.159 219.637 209.636V168.545C219.637 163.023 215.16 158.545 209.637 158.545H168.546Z" fill="#963C5E"/>
</svg>
